<svg width="116" height="116" viewBox="0 0 116 116" fill="none" xmlns="http://www.w3.org/2000/svg">
<path d="M81.6574 58.0001C84.4388 54.2178 86.8346 50.1666 88.809 45.9071C92.6686 37.3252 92.7621 30.5761 89.0965 26.9033C85.4308 23.2305 78.6746 23.3311 70.0927 27.1908C65.8332 29.1651 61.782 31.5609 57.9997 34.3424C54.2175 31.5609 50.1663 29.1651 45.9068 27.1908C37.3249 23.3311 30.5758 23.2377 26.903 26.9033C23.2302 30.569 23.3308 37.3252 27.1905 45.9071C29.1648 50.1666 31.5606 54.2178 34.3421 58.0001C31.5606 61.7823 29.1648 65.8335 27.1905 70.093C23.3308 78.6749 23.2374 85.424 26.903 89.0968C28.6999 90.8936 31.2155 91.7813 34.3169 91.7813C37.5872 91.7813 41.5044 90.7894 45.9068 88.8093C50.1663 86.835 54.2175 84.4392 57.9997 81.6577C61.782 84.4392 65.8332 86.835 70.0927 88.8093C74.4951 90.7894 78.4122 91.7813 81.6825 91.7813C84.7875 91.7813 87.3068 90.8865 89.0965 89.0968C92.7729 85.424 92.6686 78.6749 88.809 70.093C86.8346 65.8335 84.4388 61.7823 81.6574 58.0001ZM86.031 29.9688C89.366 33.3038 86.8791 43.0105 78.9154 54.4063C76.3588 51.2077 73.6257 48.1542 70.7288 45.2602C67.8384 42.3624 64.7885 39.6281 61.5935 37.0701C73.0036 29.1099 82.714 26.6194 86.031 29.9688ZM76.2596 58.0001C73.6116 61.409 70.7539 64.6497 67.7029 67.7032C64.6501 70.7628 61.4094 73.629 57.9997 76.285C54.5901 73.629 51.3494 70.7628 48.2966 67.7032C45.238 64.6495 42.3718 61.4089 39.7147 58.0001C45.0468 51.1892 51.1868 45.0516 57.9997 39.7222C61.4083 42.3771 64.6489 45.2408 67.7029 48.2969C70.7588 51.35 73.6214 54.5907 76.274 58.0001H76.2596ZM29.9685 29.9688C30.9316 29.0021 32.4266 28.5313 34.3421 28.5313C39.0535 28.5313 46.3093 31.4063 54.4204 37.088C51.2145 39.6364 48.1549 42.3636 45.2563 45.2566C42.3593 48.1518 39.6262 51.2064 37.0697 54.4063C29.106 42.9961 26.6191 33.2894 29.9685 29.9688ZM29.9685 86.0313C26.6335 82.6963 29.124 72.9896 37.0841 61.5938C39.6407 64.7924 42.3738 67.8459 45.2707 70.7399C48.1611 73.6377 51.2109 76.372 54.406 78.9301C42.9958 86.8938 33.2891 89.3807 29.9685 86.0313ZM86.031 86.0313C82.696 89.3663 72.9893 86.8758 61.5935 78.9121C64.793 76.3578 67.8465 73.6258 70.7396 70.7291C73.6374 67.8387 76.3717 64.7888 78.9297 61.5938C86.8935 73.004 89.3804 82.7107 86.031 86.0313ZM61.5935 58.0001C61.5935 58.7108 61.3827 59.4056 60.9878 59.9966C60.593 60.5876 60.0317 61.0482 59.375 61.3202C58.7183 61.5922 57.9958 61.6634 57.2986 61.5247C56.6015 61.3861 55.9612 61.0438 55.4586 60.5412C54.956 60.0386 54.6137 59.3983 54.475 58.7012C54.3364 58.004 54.4075 57.2815 54.6796 56.6248C54.9516 55.9681 55.4122 55.4068 56.0032 55.012C56.5942 54.6171 57.289 54.4063 57.9997 54.4063C58.9529 54.4063 59.867 54.7849 60.5409 55.4589C61.2149 56.1328 61.5935 57.0469 61.5935 58.0001Z" fill="#865DFF" fill-opacity="0.9"/>
</svg>
