<svg width="116" height="116" viewBox="0 0 116 116" fill="none" xmlns="http://www.w3.org/2000/svg">
<path d="M88.6694 56.1061C88.8083 55.8532 88.895 55.575 88.9244 55.288C88.9538 55.0009 88.9253 54.7109 88.8406 54.4351C88.7559 54.1593 88.6167 53.9033 88.4312 53.6822C88.2458 53.4612 88.0178 53.2796 87.7609 53.1483C87.504 53.017 87.2234 52.9385 86.9356 52.9176C86.6478 52.8967 86.3588 52.9338 86.0856 53.0266C85.8124 53.1195 85.5606 53.2662 85.3452 53.4581C85.1297 53.65 84.955 53.8832 84.8313 54.1439C81.9837 59.627 77.4808 64.0734 71.9621 66.8514L65.443 52.1889C67.7525 50.6834 69.5522 48.5142 70.6055 45.9665C71.6588 43.4188 71.9164 40.612 71.3444 37.9152C70.7724 35.2183 69.3975 32.7578 67.4006 30.8571C65.4038 28.9564 62.8784 27.7046 60.1566 27.2663V20.625C60.1566 20.0531 59.9294 19.5047 59.5251 19.1003C59.1207 18.6959 58.5722 18.4688 58.0004 18.4688C57.4285 18.4688 56.88 18.6959 56.4757 19.1003C56.0713 19.5047 55.8441 20.0531 55.8441 20.625V27.2663C53.1224 27.7046 50.597 28.9564 48.6001 30.8571C46.6032 32.7578 45.2284 35.2183 44.6563 37.9152C44.0843 40.612 44.3419 43.4188 45.3952 45.9665C46.4485 48.5142 48.2483 50.6834 50.5577 52.1889L33.031 91.6231C32.7984 92.1473 32.7836 92.7425 32.9899 93.2776C33.1961 93.8127 33.6065 94.244 34.1307 94.4766C34.6549 94.7091 35.25 94.7239 35.7852 94.5177C36.3203 94.3115 36.7516 93.9011 36.9841 93.3769L46.2919 72.4397C50.0391 73.8285 54.0041 74.5368 58.0004 74.5313C62.0035 74.529 65.9764 73.8373 69.7447 72.4864L79.031 93.3769C79.1461 93.6364 79.3113 93.8708 79.517 94.0665C79.7227 94.2623 79.965 94.4156 80.23 94.5177C80.4949 94.6198 80.7774 94.6687 81.0613 94.6617C81.3452 94.6546 81.6249 94.5917 81.8844 94.4766C82.144 94.3614 82.3783 94.1963 82.5741 93.9905C82.7698 93.7848 82.9231 93.5426 83.0252 93.2776C83.1274 93.0126 83.1763 92.7302 83.1692 92.4463C83.1622 92.1624 83.0993 91.8827 82.9841 91.6231L73.723 70.7794C80.1351 67.597 85.3693 62.4584 88.6694 56.1061ZM58.0004 31.4063C59.8484 31.4063 61.6549 31.9543 63.1915 32.981C64.728 34.0077 65.9257 35.467 66.6329 37.1743C67.3401 38.8817 67.5251 40.7604 67.1646 42.5729C66.804 44.3854 65.9141 46.0503 64.6074 47.357C63.3006 48.6638 61.6357 49.5537 59.8232 49.9142C58.0107 50.2747 56.132 50.0897 54.4247 49.3825C52.7173 48.6753 51.258 47.4777 50.2313 45.9411C49.2046 44.4045 48.6566 42.598 48.6566 40.75C48.6566 38.2719 49.641 35.8953 51.3933 34.143C53.1456 32.3907 55.5222 31.4063 58.0004 31.4063ZM58.0004 70.2188C54.603 70.2224 51.2309 69.6351 48.0349 68.483L54.5036 53.9463C56.8018 54.5596 59.2205 54.5596 61.5186 53.9463L67.9874 68.5369C64.7746 69.6471 61.3996 70.2155 58.0004 70.2188Z" fill="#865DFF" fill-opacity="0.9"/>
</svg>
