<svg width="116" height="116" viewBox="0 0 116 116" fill="none" xmlns="http://www.w3.org/2000/svg">
<path d="M69.5 18.4688C65.0385 18.4716 60.642 19.5386 56.6756 21.5813C52.7092 23.6239 49.2873 26.5833 46.6939 30.2136C44.1006 33.844 42.4106 38.0406 41.7644 42.455C41.1181 46.8695 41.5342 51.3744 42.9781 55.5958L21.9763 76.6012C21.5718 77.0052 21.3443 77.5533 21.3438 78.125V92.5C21.3438 93.0719 21.5709 93.6203 21.9753 94.0247C22.3797 94.4291 22.9281 94.6562 23.5 94.6562H37.875C38.4469 94.6562 38.9953 94.4291 39.3997 94.0247C39.8041 93.6203 40.0312 93.0719 40.0312 92.5V86.0312H46.5C47.0719 86.0312 47.6203 85.8041 48.0247 85.3997C48.4291 84.9953 48.6562 84.4469 48.6562 83.875V77.4062H55.125C55.6967 77.4057 56.2448 77.1782 56.6487 76.7738L60.4042 73.0219C64.2545 74.3392 68.3454 74.8024 72.3927 74.3793C76.44 73.9563 80.3467 72.657 83.8413 70.5719C87.3359 68.4868 90.3346 65.6658 92.629 62.305C94.9235 58.9442 96.4587 55.124 97.128 51.1101C97.7972 47.0961 97.5845 42.9846 96.5046 39.0611C95.4246 35.1376 93.5034 31.4963 90.8744 28.3902C88.2453 25.2841 84.9715 22.7877 81.2804 21.0743C77.5893 19.361 73.5694 18.4719 69.5 18.4688ZM69.5 70.2188C66.4933 70.224 63.5133 69.6544 60.7205 68.5405C60.3233 68.3675 59.8832 68.3182 59.4575 68.3989C59.0319 68.4797 58.6404 68.6868 58.3342 68.9933L54.2302 73.0938H46.5C45.9281 73.0938 45.3797 73.3209 44.9753 73.7253C44.5709 74.1297 44.3438 74.6781 44.3438 75.25V81.7188H37.875C37.3031 81.7188 36.7547 81.9459 36.3503 82.3503C35.9459 82.7547 35.7188 83.3031 35.7188 83.875V90.3438H25.6562V79.0198L47.0067 57.6658C47.3132 57.3596 47.5203 56.9681 47.6011 56.5425C47.6818 56.1168 47.6325 55.6767 47.4595 55.2795C45.5812 50.5654 45.2642 45.3732 46.5553 40.4657C47.8463 35.5581 50.6772 31.194 54.6321 28.0145C58.587 24.8349 63.4574 23.0076 68.5277 22.8009C73.598 22.5943 78.6009 24.0192 82.8014 26.8664C87.002 29.7135 90.1786 33.8328 91.8647 38.619C93.5508 43.4052 93.6575 48.606 92.169 53.4573C90.6805 58.3086 87.6754 62.5546 83.5951 65.5716C79.5148 68.5886 74.5745 70.2174 69.5 70.2188ZM80.2812 39.3125C80.2812 40.0233 80.0705 40.7181 79.6756 41.3091C79.2807 41.9001 78.7194 42.3607 78.0628 42.6327C77.4061 42.9047 76.6835 42.9759 75.9864 42.8372C75.2893 42.6985 74.6489 42.3563 74.1463 41.8537C73.6437 41.3511 73.3015 40.7107 73.1628 40.0136C73.0241 39.3165 73.0953 38.5939 73.3673 37.9372C73.6393 37.2806 74.0999 36.7193 74.6909 36.3244C75.2819 35.9295 75.9767 35.7188 76.6875 35.7188C77.6406 35.7188 78.5547 36.0974 79.2287 36.7713C79.9026 37.4453 80.2812 38.3594 80.2812 39.3125Z" fill="#865DFF" fill-opacity="0.9"/>
</svg>
