<svg width="128" height="128" viewBox="0 0 128 128" fill="none" xmlns="http://www.w3.org/2000/svg">
<path d="M98.3852 41.7725L66.7602 24.4686C65.9153 24.0017 64.9656 23.7568 64.0002 23.7568C63.0348 23.7568 62.0852 24.0017 61.2402 24.4686L29.6152 41.7797C28.7121 42.2739 27.9582 43.0015 27.4322 43.8865C26.9063 44.7715 26.6276 45.7815 26.6252 46.811V81.1816C26.6276 82.2111 26.9063 83.2211 27.4322 84.1061C27.9582 84.9911 28.7121 85.7187 29.6152 86.2129L61.2402 103.524C62.0852 103.991 63.0348 104.236 64.0002 104.236C64.9656 104.236 65.9153 103.991 66.7602 103.524L98.3852 86.2129C99.2884 85.7187 100.042 84.9911 100.568 84.1061C101.094 83.2211 101.373 82.2111 101.375 81.1816V46.8146C101.375 45.7832 101.097 44.771 100.571 43.8839C100.045 42.9968 99.29 42.2676 98.3852 41.7725ZM64.0002 29.4999L92.8724 45.3124L64.0002 61.1249L35.1281 45.3124L64.0002 29.4999ZM32.3752 50.3436L61.1252 66.0771V96.9079L32.3752 81.1852V50.3436ZM66.8752 96.9079V66.0914L95.6252 50.3436V81.1708L66.8752 96.9079Z" fill="#865DFF" fill-opacity="0.9"/>
</svg>
