<svg width="116" height="116" viewBox="0 0 116 116" fill="none" xmlns="http://www.w3.org/2000/svg">
<path d="M86.75 61.5938H29.25C27.9156 61.5938 26.6359 62.1238 25.6924 63.0674C24.7488 64.0109 24.2188 65.2906 24.2188 66.625V83.875C24.2188 85.2094 24.7488 86.4891 25.6924 87.4326C26.6359 88.3762 27.9156 88.9062 29.25 88.9062H86.75C88.0844 88.9062 89.3641 88.3762 90.3076 87.4326C91.2512 86.4891 91.7812 85.2094 91.7812 83.875V66.625C91.7812 65.2906 91.2512 64.0109 90.3076 63.0674C89.3641 62.1238 88.0844 61.5938 86.75 61.5938ZM87.4688 83.875C87.4688 84.0656 87.393 84.2484 87.2582 84.3832C87.1234 84.518 86.9406 84.5938 86.75 84.5938H29.25C29.0594 84.5938 28.8766 84.518 28.7418 84.3832C28.607 84.2484 28.5312 84.0656 28.5312 83.875V66.625C28.5312 66.4344 28.607 66.2516 28.7418 66.1168C28.8766 65.982 29.0594 65.9062 29.25 65.9062H86.75C86.9406 65.9062 87.1234 65.982 87.2582 66.1168C87.393 66.2516 87.4688 66.4344 87.4688 66.625V83.875ZM86.75 27.0938H29.25C27.9156 27.0938 26.6359 27.6238 25.6924 28.5674C24.7488 29.5109 24.2188 30.7906 24.2188 32.125V49.375C24.2187 50.0357 24.3489 50.69 24.6017 51.3004C24.8546 51.9108 25.2252 52.4654 25.6924 52.9326C26.1596 53.3998 26.7142 53.7704 27.3246 54.0233C27.935 54.2761 28.5893 54.4062 29.25 54.4062H86.75C87.4107 54.4063 88.065 54.2761 88.6754 54.0233C89.2858 53.7704 89.8404 53.3998 90.3076 52.9326C90.7748 52.4654 91.1454 51.9108 91.3983 51.3004C91.6511 50.69 91.7812 50.0357 91.7812 49.375V32.125C91.7812 30.7906 91.2512 29.5109 90.3076 28.5674C89.3641 27.6238 88.0844 27.0938 86.75 27.0938ZM87.4688 49.375C87.4688 49.5656 87.393 49.7484 87.2582 49.8832C87.1234 50.018 86.9406 50.0938 86.75 50.0938H29.25C29.0594 50.0938 28.8766 50.018 28.7418 49.8832C28.607 49.7484 28.5312 49.5656 28.5312 49.375V32.125C28.5312 31.9344 28.607 31.7516 28.7418 31.6168C28.8766 31.482 29.0594 31.4062 29.25 31.4062H86.75C86.9406 31.4062 87.1234 31.482 87.2582 31.6168C87.393 31.7516 87.4688 31.9344 87.4688 32.125V49.375ZM80.2812 40.75C80.2812 41.4608 80.0705 42.1556 79.6756 42.7466C79.2807 43.3376 78.7194 43.7982 78.0628 44.0702C77.4061 44.3422 76.6835 44.4134 75.9864 44.2747C75.2893 44.136 74.6489 43.7938 74.1463 43.2912C73.6437 42.7886 73.3015 42.1482 73.1628 41.4511C73.0241 40.754 73.0953 40.0314 73.3673 39.3747C73.6393 38.7181 74.0999 38.1568 74.6909 37.7619C75.2819 37.367 75.9767 37.1562 76.6875 37.1562C77.6406 37.1562 78.5547 37.5349 79.2287 38.2088C79.9026 38.8828 80.2812 39.7969 80.2812 40.75ZM80.2812 75.25C80.2812 75.9608 80.0705 76.6556 79.6756 77.2466C79.2807 77.8376 78.7194 78.2982 78.0628 78.5702C77.4061 78.8422 76.6835 78.9134 75.9864 78.7747C75.2893 78.636 74.6489 78.2938 74.1463 77.7912C73.6437 77.2886 73.3015 76.6482 73.1628 75.9511C73.0241 75.254 73.0953 74.5314 73.3673 73.8747C73.6393 73.2181 74.0999 72.6568 74.6909 72.2619C75.2819 71.867 75.9767 71.6562 76.6875 71.6562C77.6406 71.6562 78.5547 72.0349 79.2287 72.7088C79.9026 73.3828 80.2812 74.2969 80.2812 75.25Z" fill="#865DFF" fill-opacity="0.9"/>
</svg>
